<?xml version="1.0" encoding="UTF-8"?>
<svg width="92px" height="179px" viewBox="0 0 92 179" version="1.1" xmlns="http://www.w3.org/2000/svg" xmlns:xlink="http://www.w3.org/1999/xlink">
    <!-- Generator: Sketch 41 (35326) - http://www.bohemiancoding.com/sketch -->
    <title>Android Design</title>
    <desc>Created with Sketch.</desc>
    <defs>
        <rect id="path-1" x="0" y="0" width="91.5019408" height="179" rx="4"></rect>
        <mask id="mask-2" maskContentUnits="userSpaceOnUse" maskUnits="objectBoundingBox" x="0" y="0" width="91.5019408" height="179" fill="white">
            <use xlink:href="#path-1"></use>
        </mask>
        <rect id="path-3" x="34.0472338" y="0" width="6.38385633" height="6.13714286" rx="1"></rect>
        <mask id="mask-4" maskContentUnits="userSpaceOnUse" maskUnits="objectBoundingBox" x="0" y="0" width="6.38385633" height="6.13714286" fill="white">
            <use xlink:href="#path-3"></use>
        </mask>
    </defs>
    <g id="Page-1" stroke="none" stroke-width="1" fill="none" fill-rule="evenodd">
        <g id="Home-Page" transform="translate(-851.000000, -271.000000)">
            <g id="Android-Design" transform="translate(851.000000, 271.000000)">
                <g id="Android-Icon" transform="translate(25.702792, 65.462857)" fill="#FFFFFF">
                    <path d="M8.22489355,36.8234964 C8.22489355,37.9485807 9.15019408,38.8691041 10.2811169,38.8691041 L12.3373403,38.8691041 L12.3373403,46.0287312 C12.3373403,47.7265857 13.71501,49.0971429 15.4216754,49.0971429 C17.1283408,49.0971429 18.5060105,47.7265857 18.5060105,46.0287312 L18.5060105,38.8691041 L22.6184573,38.8691041 L22.6184573,46.0287312 C22.6184573,47.7265857 23.9961269,49.0971429 25.7027923,49.0971429 C27.4094578,49.0971429 28.7871274,47.7265857 28.7871274,46.0287312 L28.7871274,38.8691041 L30.8433508,38.8691041 C31.9742737,38.8691041 32.8995742,37.9485807 32.8995742,36.8234964 L32.8995742,16.367419 L8.22489355,16.367419 L8.22489355,36.8234964 L8.22489355,36.8234964 Z M3.08433508,16.367419 C1.37766967,16.367419 0,17.7379761 0,19.4358306 L0,33.7550848 C0,35.4529392 1.37766967,36.8234964 3.08433508,36.8234964 C4.79100049,36.8234964 6.16867016,35.4529392 6.16867016,33.7550848 L6.16867016,19.4358306 C6.16867016,17.7379761 4.79100049,16.367419 3.08433508,16.367419 L3.08433508,16.367419 Z M38.0401327,16.367419 C36.3334673,16.367419 34.9557976,17.7379761 34.9557976,19.4358306 L34.9557976,33.7550848 C34.9557976,35.4529392 36.3334673,36.8234964 38.0401327,36.8234964 C39.7467981,36.8234964 41.1244678,35.4529392 41.1244678,33.7550848 L41.1244678,19.4358306 C41.1244678,17.7379761 39.7467981,16.367419 38.0401327,16.367419 L38.0401327,16.367419 Z M27.8207024,4.42106974 L30.504074,1.75155163 C30.9050375,1.35265812 30.9050375,0.708291681 30.504074,0.309398171 C30.1031104,-0.0894953388 29.4554,-0.0894953388 29.0544365,0.309398171 L26.0112259,3.32666959 C24.3662471,2.51865453 22.5259272,2.04816475 20.5622339,2.04816475 C18.5882594,2.04816475 16.7376584,2.51865453 15.0823985,3.33689763 L12.0289068,0.299170133 C11.6279433,-0.0997233775 10.9802329,-0.0997233775 10.5792693,0.299170133 C10.1783058,0.698063643 10.1783058,1.34243008 10.5792693,1.74132359 L13.272922,4.42106974 C10.2194302,6.66101022 8.22489355,10.2612798 8.22489355,14.3218112 L32.8995742,14.3218112 C32.8995742,10.2510518 30.8947564,6.65078218 27.8207024,4.42106974 L27.8207024,4.42106974 Z M25.7027923,10.2280387 C26.2706028,10.2280387 26.730904,9.77011383 26.730904,9.20523485 C26.730904,8.64035587 26.2706028,8.18243097 25.7027923,8.18243097 C25.1349819,8.18243097 24.6746807,8.64035587 24.6746807,9.20523485 C24.6746807,9.77011383 25.1349819,10.2280387 25.7027923,10.2280387 Z M15.4216754,10.2280387 C15.9894858,10.2280387 16.4497871,9.77011383 16.4497871,9.20523485 C16.4497871,8.64035587 15.9894858,8.18243097 15.4216754,8.18243097 C14.853865,8.18243097 14.3935637,8.64035587 14.3935637,9.20523485 C14.3935637,9.77011383 14.853865,10.2280387 15.4216754,10.2280387 Z" id="Shape"></path>
                </g>
                <use id="Outline" stroke="#FFFFFF" mask="url(#mask-2)" stroke-width="5" xlink:href="#path-1"></use>
                <path d="M9.04379647,171.681075 L82.4581443,171.681075" id="Speaker-Bottom" stroke="#FFFFFF" stroke-width="2.5" stroke-linecap="round" stroke-linejoin="round"></path>
                <g id="Android-Buttons" transform="translate(26.067413, 155.474286)" stroke="#FFFFFF">
                    <use id="Apps" mask="url(#mask-4)" stroke-width="3" xlink:href="#path-3"></use>
                    <ellipse id="Home" stroke-width="1.5" cx="19.683557" cy="3.58" rx="2.65994014" ry="2.55714286"></ellipse>
                    <polygon id="Back" stroke-width="1.5" points="5.31988028 1.02285714 5.31988028 6.13714286 0 3.58"></polygon>
                </g>
                <path d="M9.04379647,6.06425234 L82.4581443,6.06425234" id="Speaker-Top" stroke="#FFFFFF" stroke-width="2.5" stroke-linecap="round" stroke-linejoin="round"></path>
            </g>
        </g>
    </g>
</svg>