<?xml version="1.0" encoding="UTF-8"?>
<svg width="22px" height="21px" viewBox="0 0 22 21" version="1.1" xmlns="http://www.w3.org/2000/svg" xmlns:xlink="http://www.w3.org/1999/xlink">
    <!-- Generator: Sketch 41 (35326) - http://www.bohemiancoding.com/sketch -->
    <title>Shape</title>
    <desc>Created with Sketch.</desc>
    <defs></defs>
    <g id="Page2" stroke="none" stroke-width="1" fill="none" fill-rule="evenodd">
        <g id="Project-Page" transform="translate(-991.000000, -572.000000)" fill="#F34040">
            <g id="Project-Card" transform="translate(189.000000, 321.000000)">
                <g id="ic_work" transform="translate(802.000000, 251.000000)">
                    <path d="M19.8,4.42105263 L15.4,4.42105263 L15.4,2.21052632 C15.4,0.983684211 14.421,0 13.2,0 L8.8,0 C7.579,0 6.6,0.983684211 6.6,2.21052632 L6.6,4.42105263 L2.2,4.42105263 C0.979,4.42105263 0.011,5.40473684 0.011,6.63157895 L0,18.7894737 C0,20.0163158 0.979,21 2.2,21 L19.8,21 C21.021,21 22,20.0163158 22,18.7894737 L22,6.63157895 C22,5.40473684 21.021,4.42105263 19.8,4.42105263 L19.8,4.42105263 Z M13.2,4.42105263 L8.8,4.42105263 L8.8,2.21052632 L13.2,2.21052632 L13.2,4.42105263 L13.2,4.42105263 Z" id="Shape"></path>
                </g>
            </g>
        </g>
    </g>
</svg>