<?xml version="1.0" encoding="UTF-8"?>
<svg width="48px" height="43px" viewBox="0 0 48 43" version="1.1" xmlns="http://www.w3.org/2000/svg" xmlns:xlink="http://www.w3.org/1999/xlink">
    <!-- Generator: Sketch 41 (35326) - http://www.bohemiancoding.com/sketch -->
    <title>firefox-color</title>
    <desc>Created with Sketch.</desc>
    <defs></defs>
    <g id="Page-1" stroke="none" stroke-width="1" fill="none" fill-rule="evenodd">
        <g id="Home-Page" transform="translate(-429.000000, -275.000000)" fill="#FF8000">
            <g id="Group-3" transform="translate(429.000000, 271.000000)">
                <path d="M16.6877455,11.7291039 C16.8754345,10.1404642 17.9437821,8.07982903 19.9552348,7.13537603 C16.9331043,6.67735444 14.4789339,8.07994451 13.2565672,9.88304363 C11.3169979,9.46821419 10.1252718,9.44546324 8.17475106,9.8067067 C6.93700571,8.87680507 5.48139667,6.75773342 5.59533821,4.54038231 C3.25347834,7.27476889 2.7709161,9.33667445 3.05961461,11.7981652 C-5.95400029,27.7808782 6.17296825,47 23.458413,47 C38.9880162,46.9998845 48,35.2270204 48,23.1634755 C48,15.0279911 44.2850164,7.96607429 40.4919746,6.43922017 C41.9071566,7.98524514 43.5149207,12.0122781 43.2068824,14.7989803 C40.1454898,6.89735725 32.5015035,3.84353352 29.9255858,4.00613927 C38.3933765,7.27904191 40.4198583,18.4205384 39.6686363,21.7088008 C38.9324435,17.8529196 36.5832438,14.5317433 35.1778482,13.6538109 C43.3787267,32.6985472 23.572937,38.549929 17.5298411,31.9403748 C19.0882072,32.3409994 22.1643959,32.144094 24.4689743,30.6142372 C26.6250092,29.1830063 26.8278438,29.0990473 28.213084,28.9924527 C29.8584791,28.865648 28.1139386,25.6449455 24.5196538,26.1898133 C23.0407438,26.4140891 20.6036996,28.1379641 17.6061516,27.0018027 C13.9892649,25.6307406 14.1030899,20.7366309 17.8379959,22.2090906 C18.6464216,21.1693608 18.0496848,19.2040024 18.0496848,19.2040024 C19.1348091,18.2190135 20.5046707,17.5249364 21.339077,17.0371191 C21.8862993,16.71722 23.3286268,15.8315499 23.246957,14.1094072 C22.9531323,13.8816668 22.4782594,13.5906395 21.4086302,13.6515011 C17.2406765,13.9134257 16.9619974,12.4206403 16.6877455,11.7291039 L16.6877455,11.7291039 Z" id="firefox"></path>
            </g>
        </g>
    </g>
</svg>