<?xml version="1.0" encoding="UTF-8"?>
<svg width="196px" height="170px" viewBox="0 0 196 170" version="1.1" xmlns="http://www.w3.org/2000/svg" xmlns:xlink="http://www.w3.org/1999/xlink">
    <!-- Generator: Sketch 41 (35326) - http://www.bohemiancoding.com/sketch -->
    <title>Group 3</title>
    <desc>Created with Sketch.</desc>
    <defs></defs>
    <g id="Page-1" stroke="none" stroke-width="1" fill="none" fill-rule="evenodd">
        <g id="Home-Page" transform="translate(-429.000000, -271.000000)">
            <g id="Group-3" transform="translate(429.000000, 271.000000)">
                <g id="Safari" transform="translate(24.000000, 122.000000)">
                    <circle id="Oval" fill="#00ABFF" cx="24" cy="24" r="24"></circle>
                    <g id="Group" transform="translate(24.388909, 24.176777) rotate(-45.000000) translate(-24.388909, -24.176777) translate(2.888909, 20.676777)">
                        <g id="Group-2" transform="translate(0.000000, 0.000000)">
                            <polygon id="Shape" fill="#FFFFFF" points="-3.19744231e-13 3.1 21.35 6.2 22.2921646 0.731192283"></polygon>
                            <polygon id="Shape" fill="#EE0000" points="42.7 3.1 21.35 6.2 21.35 2.4901204"></polygon>
                            <polygon id="Shape" fill="#FFFFFF" points="0 3.1 21.35 0 21.35 3.1"></polygon>
                            <polygon id="Shape" fill="#EE0000" points="21.35 -1.59872116e-13 42.7 3.1 21.35 3.1"></polygon>
                        </g>
                    </g>
                </g>
                <path d="M174.512212,36.4561916 C169.229769,36.4561916 165.467597,31.876869 165.336529,27.2214176 L195.958643,27.2214176 C196.426176,17.1956908 192.958761,10.0854582 184.076205,5.12572284 C185.373951,3.70604015 196.005594,-0.0299547147 193.284742,10.1240441 L194.329556,11.6346875 C198.941514,-2.33722876 185.089214,-1.57756179 175.923201,2.85668706 C162.711677,2.81311861 155.231255,11.079885 153.175296,19.5640302 C156.746633,14.4639719 161.363251,11.4416422 164.374083,10.6012114 C147.143378,24.3834427 139.136704,54.7810135 162.536803,45.147171 L160.912727,44.1734856 C146.830679,48.5907011 152.271685,36.1069487 154.981702,34.3065055 C158.225661,40.9060834 165.137656,46.1805313 173.593455,46.1805313 C184.355001,46.1805313 192.349325,40.6532473 195.521167,31.4854482 L183.097565,31.4854482 C181.303741,34.6632802 178.810306,36.4561916 174.512212,36.4561916 L174.512212,36.4561916 Z M174.512212,12.7875134 C179.794538,12.7875134 183.316128,16.9099466 183.447312,20.9998193 L165.46783,20.9998193 C165.64282,17.5190938 168.868954,12.7875134 174.512212,12.7875134 L174.512212,12.7875134 Z" id="internetexplorer" fill="#00BBF5"></path>
                <path d="M173.007162,122 C159.930014,122 150,131.094835 150,145.771068 C150,158.451456 159.198483,170 172.999338,170 C186.803322,170 196,158.451456 196,145.771068 C195.99988,131.111728 186.084552,122 173.007162,122 L173.007162,122 Z M173.006561,126.240194 C180.410464,126.240194 181.91626,136.23899 181.91626,145.318097 C181.91626,153.72835 181.078436,164.987728 173.097445,164.987728 C165.116454,164.987728 164.084463,153.618136 164.084463,145.208583 C164.084463,136.130175 165.601934,126.240194 173.006561,126.240194 L173.006561,126.240194 Z" id="opera" fill="#D00003"></path>
                <g id="chrome" transform="translate(86.000000, 56.000000)">
                    <path d="M5.7954035,8.36130434 C16.9522782,-4.62351526 37.639151,-2.06037988 45.3727574,13.1072081 C39.9288251,13.1091897 31.4040328,13.1055761 26.786937,13.1072081 C23.4382318,13.1083738 21.2761308,13.0322537 18.9347285,14.2648621 C16.1820632,15.7138239 14.1051274,18.3997073 13.3801164,21.5544341 L5.7954035,8.36130434 L5.7954035,8.36130434 Z" id="chrome-icon-path" fill="#EA4335"></path>
                    <path d="M16.015461,23.9991346 C16.015461,28.3998753 19.5936811,31.9800817 23.9919804,31.9800817 C28.3901632,31.9800817 31.9683834,28.3998753 31.9683834,23.9991346 C31.9683834,19.5985104 28.3901632,16.0181875 23.9919804,16.0181875 C19.5936811,16.0181875 16.015461,19.5985104 16.015461,23.9991346 L16.015461,23.9991346 Z" id="chrome-icon-path" fill="#4285F4"></path>
                    <path d="M27.0876366,34.4456482 C22.6105798,35.7761751 17.371347,34.3006354 14.5014777,29.3468879 C12.3108329,25.5655987 6.52286114,15.4823164 3.89206021,10.8973955 C-5.32185953,25.0194695 2.61924235,44.2642006 19.3464574,47.5489026 L27.0876366,34.4456482 L27.0876366,34.4456482 Z" id="chrome-icon-path" fill="#34A853"></path>
                    <path d="M31.4014697,16.0181875 C35.1303309,19.4863704 35.9427207,25.102234 33.4168909,29.4566966 C31.5138971,32.7374352 25.4402549,42.9884614 22.4966379,47.9523505 C39.730883,49.0147671 52.2944399,32.1238121 46.6195946,16.0181875 L31.4014697,16.0181875 L31.4014697,16.0181875 Z" id="chrome-icon-path" fill="#FBBC05"></path>
                </g>
                <path d="M16.6877455,11.7291039 C16.8754345,10.1404642 17.9437821,8.07982903 19.9552348,7.13537603 C16.9331043,6.67735444 14.4789339,8.07994451 13.2565672,9.88304363 C11.3169979,9.46821419 10.1252718,9.44546324 8.17475106,9.8067067 C6.93700571,8.87680507 5.48139667,6.75773342 5.59533821,4.54038231 C3.25347834,7.27476889 2.7709161,9.33667445 3.05961461,11.7981652 C-5.95400029,27.7808782 6.17296825,47 23.458413,47 C38.9880162,46.9998845 48,35.2270204 48,23.1634755 C48,15.0279911 44.2850164,7.96607429 40.4919746,6.43922017 C41.9071566,7.98524514 43.5149207,12.0122781 43.2068824,14.7989803 C40.1454898,6.89735725 32.5015035,3.84353352 29.9255858,4.00613927 C38.3933765,7.27904191 40.4198583,18.4205384 39.6686363,21.7088008 C38.9324435,17.8529196 36.5832438,14.5317433 35.1778482,13.6538109 C43.3787267,32.6985472 23.572937,38.549929 17.5298411,31.9403748 C19.0882072,32.3409994 22.1643959,32.144094 24.4689743,30.6142372 C26.6250092,29.1830063 26.8278438,29.0990473 28.213084,28.9924527 C29.8584791,28.865648 28.1139386,25.6449455 24.5196538,26.1898133 C23.0407438,26.4140891 20.6036996,28.1379641 17.6061516,27.0018027 C13.9892649,25.6307406 14.1030899,20.7366309 17.8379959,22.2090906 C18.6464216,21.1693608 18.0496848,19.2040024 18.0496848,19.2040024 C19.1348091,18.2190135 20.5046707,17.5249364 21.339077,17.0371191 C21.8862993,16.71722 23.3286268,15.8315499 23.246957,14.1094072 C22.9531323,13.8816668 22.4782594,13.5906395 21.4086302,13.6515011 C17.2406765,13.9134257 16.9619974,12.4206403 16.6877455,11.7291039 L16.6877455,11.7291039 Z" id="firefox" fill="#FF8000"></path>
            </g>
        </g>
    </g>
</svg>