<?xml version="1.0" encoding="UTF-8"?>
<svg width="48px" height="47px" viewBox="0 0 48 47" version="1.1" xmlns="http://www.w3.org/2000/svg" xmlns:xlink="http://www.w3.org/1999/xlink">
    <!-- Generator: Sketch 41 (35326) - http://www.bohemiancoding.com/sketch -->
    <title>internetexplorer-color</title>
    <desc>Created with Sketch.</desc>
    <defs></defs>
    <g id="Page-1" stroke="none" stroke-width="1" fill="none" fill-rule="evenodd">
        <g id="Home-Page" transform="translate(-577.000000, -271.000000)" fill="#00BBF5">
            <g id="Group-3" transform="translate(429.000000, 271.000000)">
                <path d="M174.512212,36.4561916 C169.229769,36.4561916 165.467597,31.876869 165.336529,27.2214176 L195.958643,27.2214176 C196.426176,17.1956908 192.958761,10.0854582 184.076205,5.12572284 C185.373951,3.70604015 196.005594,-0.0299547147 193.284742,10.1240441 L194.329556,11.6346875 C198.941514,-2.33722876 185.089214,-1.57756179 175.923201,2.85668706 C162.711677,2.81311861 155.231255,11.079885 153.175296,19.5640302 C156.746633,14.4639719 161.363251,11.4416422 164.374083,10.6012114 C147.143378,24.3834427 139.136704,54.7810135 162.536803,45.147171 L160.912727,44.1734856 C146.830679,48.5907011 152.271685,36.1069487 154.981702,34.3065055 C158.225661,40.9060834 165.137656,46.1805313 173.593455,46.1805313 C184.355001,46.1805313 192.349325,40.6532473 195.521167,31.4854482 L183.097565,31.4854482 C181.303741,34.6632802 178.810306,36.4561916 174.512212,36.4561916 L174.512212,36.4561916 Z M174.512212,12.7875134 C179.794538,12.7875134 183.316128,16.9099466 183.447312,20.9998193 L165.46783,20.9998193 C165.64282,17.5190938 168.868954,12.7875134 174.512212,12.7875134 L174.512212,12.7875134 Z" id="internetexplorer"></path>
            </g>
        </g>
    </g>
</svg>