<?xml version="1.0" encoding="UTF-8"?>
<svg width="27px" height="17px" viewBox="0 0 27 17" version="1.1" xmlns="http://www.w3.org/2000/svg" xmlns:xlink="http://www.w3.org/1999/xlink">
    <!-- Generator: Sketch 41 (35326) - http://www.bohemiancoding.com/sketch -->
    <title>Shape</title>
    <desc>Created with Sketch.</desc>
    <defs></defs>
    <g id="Page2" stroke="none" stroke-width="1" fill="none" fill-rule="evenodd">
        <g id="Project-Page" transform="translate(-989.000000, -470.000000)" fill="#F34040">
            <g id="Project-Card" transform="translate(189.000000, 321.000000)">
                <g id="ic_people" transform="translate(800.000000, 149.000000)">
                    <path d="M18.2142857,7.28571429 C20.23,7.28571429 21.845,5.65857143 21.845,3.64285714 C21.845,1.62714286 20.23,0 18.2142857,0 C16.1985714,0 14.5714286,1.62714286 14.5714286,3.64285714 C14.5714286,5.65857143 16.1985714,7.28571429 18.2142857,7.28571429 L18.2142857,7.28571429 Z M8.5,7.28571429 C10.5157143,7.28571429 12.1307143,5.65857143 12.1307143,3.64285714 C12.1307143,1.62714286 10.5157143,0 8.5,0 C6.48428571,0 4.85714286,1.62714286 4.85714286,3.64285714 C4.85714286,5.65857143 6.48428571,7.28571429 8.5,7.28571429 L8.5,7.28571429 Z M8.5,9.71428571 C5.67071429,9.71428571 0,11.135 0,13.9642857 L0,17 L17,17 L17,13.9642857 C17,11.135 11.3292857,9.71428571 8.5,9.71428571 L8.5,9.71428571 Z M18.2142857,9.71428571 C17.8621429,9.71428571 17.4614286,9.73857143 17.0364286,9.775 C18.445,10.795 19.4285714,12.1671429 19.4285714,13.9642857 L19.4285714,17 L26.7142857,17 L26.7142857,13.9642857 C26.7142857,11.135 21.0435714,9.71428571 18.2142857,9.71428571 L18.2142857,9.71428571 Z" id="Shape"></path>
                </g>
            </g>
        </g>
    </g>
</svg>