<?xml version="1.0" encoding="UTF-8"?>
<svg width="1079px" height="727px" viewBox="0 0 1079 727" version="1.1" xmlns="http://www.w3.org/2000/svg" xmlns:xlink="http://www.w3.org/1999/xlink">
    <!-- Generator: Sketch 41.2 (35397) - http://www.bohemiancoding.com/sketch -->
    <title>Group 10</title>
    <desc>Created with Sketch.</desc>
    <defs>
        <path d="M1010.38662,238.444915 L1010.38662,273.799219 C1008.40341,273.322729 1006.32391,273.069261 1004.18081,273.069261 C990.506101,273.069261 979.420558,283.389158 979.420558,296.119397 C979.420558,308.849635 990.506101,319.169532 1004.18081,319.169532 C1006.32391,319.169532 1008.40341,318.916064 1010.38662,318.439575 L1010.38662,352.841561 C1008.40341,352.365071 1006.32391,352.111604 1004.18081,352.111604 C990.506101,352.111604 979.420558,362.431501 979.420558,375.161739 C979.420558,387.891977 990.506101,398.211874 1004.18081,398.211874 C1006.32391,398.211874 1008.40341,397.958407 1010.38662,397.481917 L1010.38662,430.931586 C1008.40341,430.455096 1006.32391,430.201629 1004.18081,430.201629 C990.506101,430.201629 979.420558,440.521526 979.420558,453.251764 C979.420558,465.982002 990.506101,476.301899 1004.18081,476.301899 C1006.32391,476.301899 1008.40341,476.048432 1010.38662,475.571942 L1010.38662,509.973928 C1008.40341,509.497439 1006.32391,509.243971 1004.18081,509.243971 C990.506101,509.243971 979.420558,519.563868 979.420558,532.294106 C979.420558,545.024344 990.506101,555.344241 1004.18081,555.344241 C1006.32391,555.344241 1008.40341,555.090774 1010.38662,554.614284 L1010.38662,653.995257 C1010.38662,656.207016 1008.59273,658 1006.38393,658 L974.924869,658 C974.924869,644.325291 964.604972,633.239748 951.874734,633.239748 C939.144496,633.239748 928.824599,644.325291 928.824599,658 L900.455202,658 C900.455202,644.325291 890.135305,633.239748 877.405066,633.239748 C864.674828,633.239748 854.354931,644.325291 854.354931,658 L826.872078,658 C826.872078,644.325291 816.552181,633.239748 803.821942,633.239748 C791.091704,633.239748 780.771807,644.325291 780.771807,658 L747.969692,658 C747.969692,644.325291 737.649795,633.239748 724.919556,633.239748 C712.189318,633.239748 701.869421,644.325291 701.869421,658 L673.500024,658 C673.500024,644.325291 663.180127,633.239748 650.449889,633.239748 C637.719651,633.239748 627.399754,644.325291 627.399754,658 L599.9169,658 C599.9169,644.325291 589.597003,633.239748 576.866765,633.239748 C564.136527,633.239748 553.81663,644.325291 553.81663,658 L527.22032,658 C527.22032,644.325291 516.900423,633.239748 504.170185,633.239748 C491.439946,633.239748 481.120049,644.325291 481.120049,658 L453.637196,658 C453.637196,644.325291 443.317299,633.239748 430.587061,633.239748 C417.856822,633.239748 407.536925,644.325291 407.536925,658 L377.394441,658 C377.394441,644.325291 367.074544,633.239748 354.344306,633.239748 C341.614067,633.239748 331.29417,644.325291 331.29417,658 L302.924773,658 C302.924773,644.325291 292.604876,633.239748 279.874638,633.239748 C267.1444,633.239748 256.824503,644.325291 256.824503,658 L229.341649,658 C229.341649,644.325291 219.021752,633.239748 206.291514,633.239748 C193.561276,633.239748 183.241379,644.325291 183.241379,658 L156.645069,658 C156.645069,644.325291 146.325172,633.239748 133.594934,633.239748 C120.864695,633.239748 110.544798,644.325291 110.544798,658 L83.0619448,658 C83.0619448,644.325291 72.7420477,633.239748 60.0118096,633.239748 C47.2815714,633.239748 36.9616744,644.325291 36.9616744,658 L4.61606575,658 C2.40544577,658 0.613384189,656.201438 0.613384189,653.995257 L0.613384189,555.344241 C14.2880937,555.344241 25.373636,545.024344 25.373636,532.294106 C25.373636,519.563868 14.2880937,509.243971 0.613384189,509.243971 L0.613384189,476.301899 C14.2880937,476.301899 25.373636,465.982002 25.373636,453.251764 C25.373636,440.521526 14.2880937,430.201629 0.613384189,430.201629 L0.613384189,398.211874 C14.2880937,398.211874 25.373636,387.891977 25.373636,375.161739 C25.373636,362.431501 14.2880937,352.111604 0.613384189,352.111604 L0.613384189,319.169532 C14.2880937,319.169532 25.373636,308.849635 25.373636,296.119397 C25.373636,283.389158 14.2880937,273.069261 0.613384189,273.069261 L0.613384189,239.174872 C14.2880937,239.174872 25.373636,228.854975 25.373636,216.124737 C25.373636,203.394499 14.2880937,193.074602 0.613384189,193.074602 L0.613384189,154.418626 C14.2880937,154.418626 25.373636,144.098729 25.373636,131.36849 C25.373636,118.638252 14.2880937,108.318355 0.613384189,108.318355 L0.613384189,4.90575257 C0.613384189,2.69399413 2.40726942,0.901009658 4.61606575,0.901009658 L35.188587,0.901009658 C35.188587,14.5757191 45.5084841,25.6612615 58.2387223,25.6612615 C70.9689604,25.6612615 81.2888575,14.5757191 81.2888575,0.901009658 L108.771711,0.901009658 C108.771711,14.5757191 119.091608,25.6612615 131.821846,25.6612615 C144.552084,25.6612615 154.871981,14.5757191 154.871981,0.901009658 L181.468291,0.901009658 C181.468291,14.5757191 191.788188,25.6612615 204.518427,25.6612615 C217.248665,25.6612615 227.568562,14.5757191 227.568562,0.901009658 L255.051415,0.901009658 C255.051415,14.5757191 265.371312,25.6612615 278.101551,25.6612615 C290.831789,25.6612615 301.151686,14.5757191 301.151686,0.901009658 L329.521083,0.901009658 C329.521083,14.5757191 339.84098,25.6612615 352.571218,25.6612615 C365.301456,25.6612615 375.621353,14.5757191 375.621353,0.901009658 L405.763838,0.901009658 C405.763838,14.5757191 416.083735,25.6612615 428.813973,25.6612615 C441.544211,25.6612615 451.864108,14.5757191 451.864108,0.901009658 L479.346962,0.901009658 C479.346962,14.5757191 489.666859,25.6612615 502.397097,25.6612615 C515.127335,25.6612615 525.447232,14.5757191 525.447232,0.901009658 L552.043542,0.901009658 C552.043542,14.5757191 562.363439,25.6612615 575.093678,25.6612615 C587.823916,25.6612615 598.143813,14.5757191 598.143813,0.901009658 L625.626666,0.901009658 C625.626666,14.5757191 635.946563,25.6612615 648.676801,25.6612615 C661.40704,25.6612615 671.726937,14.5757191 671.726937,0.901009658 L700.096334,0.901009658 C700.096334,14.5757191 710.416231,25.6612615 723.146469,25.6612615 C735.876707,25.6612615 746.196604,14.5757191 746.196604,0.901009658 L778.99872,0.901009658 C778.99872,14.5757191 789.318617,25.6612615 802.048855,25.6612615 C814.779093,25.6612615 825.09899,14.5757191 825.09899,0.901009658 L852.581844,0.901009658 C852.581844,14.5757191 862.901741,25.6612615 875.631979,25.6612615 C888.362217,25.6612615 898.682114,14.5757191 898.682114,0.901009658 L927.051512,0.901009658 C927.051512,14.5757191 937.371409,25.6612615 950.101647,25.6612615 C962.831885,25.6612615 973.151782,14.5757191 973.151782,0.901009658 L1006.38393,0.901009658 C1008.59455,0.901009658 1010.38662,2.69957127 1010.38662,4.90575257 L1010.38662,109.048312 C1008.40341,108.571823 1006.32391,108.318355 1004.18081,108.318355 C990.506101,108.318355 979.420558,118.638252 979.420558,131.36849 C979.420558,144.098729 990.506101,154.418626 1004.18081,154.418626 C1006.32391,154.418626 1008.40341,154.165158 1010.38662,153.688668 L1010.38662,193.804559 C1008.40341,193.328069 1006.32391,193.074602 1004.18081,193.074602 C990.506101,193.074602 979.420558,203.394499 979.420558,216.124737 C979.420558,228.854975 990.506101,239.174872 1004.18081,239.174872 C1006.32391,239.174872 1008.40341,238.921405 1010.38662,238.444915 Z" id="path-1"></path>
        <filter x="-50%" y="-50%" width="200%" height="200%" filterUnits="objectBoundingBox" id="filter-3">
            <feOffset dx="0" dy="11" in="SourceAlpha" result="shadowOffsetOuter1"></feOffset>
            <feGaussianBlur stdDeviation="17.5" in="shadowOffsetOuter1" result="shadowBlurOuter1"></feGaussianBlur>
            <feColorMatrix values="0 0 0 0 0.443137255   0 0 0 0 0.419607843   0 0 0 0 0.419607843  0 0 0 0.245895607 0" type="matrix" in="shadowBlurOuter1"></feColorMatrix>
        </filter>
        <linearGradient x1="50%" y1="0%" x2="50%" y2="100%" id="linearGradient-4">
            <stop stop-color="#403F3B" offset="0%"></stop>
            <stop stop-color="#313131" offset="100%"></stop>
        </linearGradient>
    </defs>
    <g id="Resume" stroke="none" stroke-width="1" fill="none" fill-rule="evenodd">
        <g id="About-Me" transform="translate(-173.000000, -5849.000000)">
            <g id="Group-10" transform="translate(207.000000, 5872.000000)">
                <g id="Group-9">
                    <g id="Group-12">
                        <mask id="mask-2" fill="white">
                            <use xlink:href="#path-1"></use>
                        </mask>
                        <g id="Combined-Shape">
                            <use fill="black" fill-opacity="1" filter="url(#filter-3)" xlink:href="#path-1"></use>
                            <use fill="#FFFFFF" fill-rule="evenodd" xlink:href="#path-1"></use>
                        </g>
                        <rect id="Rectangle-13" fill="url(#linearGradient-4)" mask="url(#mask-2)" x="-79" y="-74" width="975" height="789"></rect>
                    </g>
                    <g id="Group-8" transform="translate(92.000000, 69.000000)" font-weight="normal">
                        <text id="Basic-Information" font-family="Arvo" font-size="35" fill="#EBEBEB">
                            <tspan x="0" y="34">Basic Information</tspan>
                        </text>
                        <text id="Name" font-family="Avenir-Book, Avenir" font-size="25" fill="#EEEEEE">
                            <tspan x="5" y="126">Name</tspan>
                        </text>
                        <text id="Saurav-Biswas" font-family="JosefinSans, Josefin Sans" font-size="30" fill="#7DFFF6">
                            <tspan x="209" y="129">Saurav Biswas</tspan>
                        </text>
                        <text id="22+" font-family="JosefinSans, Josefin Sans" font-size="30" fill="#7DFFF6">
                            <tspan x="209" y="210">22+</tspan>
                        </text>
                        <text id="+91-80175-04268" font-family="JosefinSans, Josefin Sans" font-size="30" fill="#7DFFF6">
                            <tspan x="209" y="282">+91 80175-04268</tspan>
                        </text>
                        <text id="saru.sreyo@gmail.com" font-family="JosefinSans, Josefin Sans" font-size="30" fill="#7DFFF6">
                            <tspan x="209" y="359">saru.sreyo@gmail.com</tspan>
                        </text>
                        <text id="84/3-P.K.-Guha-Road" font-family="JosefinSans, Josefin Sans" font-size="30" fill="#7DFFF6">
                            <tspan x="208" y="431">84/3 P.K. Guha Road , Dum Dum Cant.</tspan>
                            <tspan x="208" y="468">Sristi Apartment , Kolkata - 700028 </tspan>
                            <tspan x="208" y="505">West Bengal .</tspan>
                        </text>
                        <text id="Age" font-family="Avenir-Book, Avenir" font-size="25" fill="#EEEEEE">
                            <tspan x="4" y="208">Age</tspan>
                        </text>
                        <text id="Phone" font-family="Avenir-Book, Avenir" font-size="25" fill="#EEEEEE">
                            <tspan x="5" y="282">Phone</tspan>
                        </text>
                        <text id="Email" font-family="Avenir-Book, Avenir" font-size="25" fill="#EEEEEE">
                            <tspan x="5" y="359">Email</tspan>
                        </text>
                        <text id="Address" font-family="Avenir-Book, Avenir" font-size="25" fill="#EEEEEE">
                            <tspan x="5" y="431">Address</tspan>
                        </text>
                    </g>
                </g>
            </g>
        </g>
    </g>
</svg>