<?xml version="1.0" encoding="UTF-8"?>
<svg width="27px" height="27px" viewBox="0 0 27 27" version="1.1" xmlns="http://www.w3.org/2000/svg" xmlns:xlink="http://www.w3.org/1999/xlink">
    <!-- Generator: Sketch 41 (35326) - http://www.bohemiancoding.com/sketch -->
    <title>Shape</title>
    <desc>Created with Sketch.</desc>
    <defs></defs>
    <g id="Page2" stroke="none" stroke-width="1" fill="none" fill-rule="evenodd">
        <g id="Project-Page" transform="translate(-989.000000, -363.000000)" fill="#F33131">
            <g id="Project-Card" transform="translate(189.000000, 321.000000)">
                <g id="ic_alarm" transform="translate(800.000000, 42.000000)">
                    <path d="M26.1290323,5.12294931 L20.1193548,-4.42312853e-13 L18.4340323,2.03059908 L24.4437097,7.15354839 L26.1290323,5.12294931 L26.1290323,5.12294931 Z M7.68193548,2.03059908 L6.00967742,-4.42312853e-13 L-1.77635684e-15,5.10967742 L1.68532258,7.1402765 L7.68193548,2.03059908 L7.68193548,2.03059908 Z M13.7177419,8.14894009 L11.7580645,8.14894009 L11.7580645,16.1120737 L17.9637097,19.8945622 L18.9435484,18.2621198 L13.7177419,15.116682 L13.7177419,8.14894009 L13.7177419,8.14894009 Z M13.0645161,2.84018433 C6.57145161,2.84018433 1.30645161,8.18875576 1.30645161,14.7848848 C1.30645161,21.3810138 6.5583871,26.7295853 13.0645161,26.7295853 C19.5575806,26.7295853 24.8225806,21.3810138 24.8225806,14.7848848 C24.8225806,8.18875576 19.5575806,2.84018433 13.0645161,2.84018433 L13.0645161,2.84018433 Z M13.0645161,24.0752074 C8.00854839,24.0752074 3.91935484,19.921106 3.91935484,14.7848848 C3.91935484,9.64866359 8.00854839,5.49456221 13.0645161,5.49456221 C18.1204839,5.49456221 22.2096774,9.64866359 22.2096774,14.7848848 C22.2096774,19.921106 18.1204839,24.0752074 13.0645161,24.0752074 L13.0645161,24.0752074 Z" id="Shape"></path>
                </g>
            </g>
        </g>
    </g>
</svg>